<svg width="713" height="713" viewBox="0 0 713 713" fill="none" xmlns="http://www.w3.org/2000/svg">
<rect width="713" height="713" rx="356.5" fill="black"/>
<path d="M190.55 132.281C172.746 134.837 156.695 145.763 149.717 160.067C142.498 174.864 143.008 160.067 143.008 355.697C143.008 520.779 143.118 532.14 144.806 538.683C149.97 558.712 160.816 570.823 179.526 577.434L187.516 580.259L344.81 580.867V290.251L241.127 342.748L240.874 383.411L240.621 424.079L269.956 408.7V509.957H216.344V202.449H269.956V294.499L344.913 256.969L344.557 217.823C344.257 184.849 343.929 177.721 342.467 172.608C336.813 152.851 324.074 139.95 304.246 133.913C299.52 132.47 291.704 132.222 246.185 132.044C217.253 131.933 192.218 132.04 190.55 132.281Z" fill="white"/>
<path d="M523.45 132.281C541.254 134.837 557.305 145.763 564.283 160.067C571.502 174.864 570.992 160.067 570.992 355.697C570.992 520.779 570.882 532.14 569.194 538.683C564.03 558.712 553.184 570.823 534.474 577.434L526.484 580.259L369.19 580.867V290.251L472.873 342.748L473.126 383.411L473.379 424.079L444.044 408.7V509.957H497.656V202.449H444.044V294.499L369.087 256.969L369.443 217.823C369.735 184.849 370.071 177.721 371.537 172.608C377.187 152.851 389.926 139.95 409.754 133.913C414.48 132.47 422.296 132.222 467.815 132.044C496.747 131.933 521.782 132.04 523.45 132.281Z" fill="white"/>
</svg>
