<svg width="1906" height="593" viewBox="0 0 1906 593" fill="none" xmlns="http://www.w3.org/2000/svg">
<path d="M0 296V592H96L96.6667 354.531L169.333 317.198V592H266.667V0H169.333V211.333L96 248V0H0V296Z" fill="black"/>
<path d="M398.135 1.39065C369.599 6.30211 351.255 21.75 341.667 48.9323L338 59.3334L337.333 592H434.667L435.333 376.802L470 359.068C489.068 349.313 505.12 341.333 505.667 341.333C506.219 341.333 506.667 397.734 506.667 466.667V592H604.135L603.333 64.6667L600.401 54.4011C596.474 40.6667 592.146 32.5261 584.021 23.599C575.51 14.2552 566.667 8.58857 553.734 4.19795L543.333 0.666695L474 0.468778C435.865 0.359404 401.729 0.770861 398.135 1.39065ZM506.667 165.068V236.802L470.667 254.266L434.667 271.734V93.3334H506.667V165.068Z" fill="black"/>
<path d="M736.667 0.843765C713.198 4.21356 692.042 18.6146 682.844 37.4688C673.328 56.974 674 37.4688 674 295.333C674 512.932 674.146 527.906 676.37 536.531C683.177 562.932 697.474 578.896 722.135 587.609L732.667 591.333L940 592.135V209.068L803.333 278.266L803 331.865L802.667 385.469L841.333 365.198V498.667H770.667V93.3333H841.333V214.667L940.135 165.198L939.667 113.599C939.271 70.1354 938.839 60.7396 936.912 54C929.458 27.9583 912.667 10.9531 886.531 2.99481C880.302 1.09376 870 0.76564 810 0.531265C771.865 0.38543 738.865 0.526057 736.667 0.843765Z" fill="black"/>
<path d="M1175.47 0.843765C1198.94 4.21356 1220.09 18.6146 1229.29 37.4688C1238.81 56.974 1238.14 37.4688 1238.14 295.333C1238.14 512.932 1237.99 527.906 1235.77 536.531C1228.96 562.932 1214.66 578.896 1190 587.609L1179.47 591.333L972.135 592.135V209.068L1108.8 278.266L1109.14 331.865L1109.47 385.469L1070.8 365.198V498.667H1141.47V93.3333H1070.8V214.667L972 165.198L972.469 113.599C972.854 70.1354 973.297 60.7396 975.229 54C982.677 27.9583 999.469 10.9531 1025.6 2.99481C1031.83 1.09376 1042.14 0.76564 1102.14 0.531265C1140.27 0.38543 1173.27 0.526057 1175.47 0.843765Z" fill="black"/>
<path d="M1370.81 1.39065C1342.28 6.30211 1323.93 21.75 1314.34 48.9323L1310.68 59.3334L1310.01 592H1407.34L1408.01 376.802L1442.68 359.068C1461.74 349.313 1477.8 341.333 1478.34 341.333C1478.89 341.333 1479.34 397.734 1479.34 466.667V592H1576.81L1576.01 64.6667L1573.08 54.4011C1569.16 40.6667 1564.82 32.5261 1556.69 23.599C1548.18 14.2552 1539.34 8.58857 1526.41 4.19795L1516.01 0.666695L1446.68 0.468778C1408.54 0.359404 1374.4 0.770861 1370.81 1.39065ZM1479.34 165.068V236.802L1443.34 254.266L1407.34 271.734V93.3334H1479.34V165.068Z" fill="black"/>
<path d="M1616.68 47.3333V94.6667H1712.68V592H1810.01V94.6667H1906.01V0H1616.68V47.3333Z" fill="black"/>
</svg>
