<svg width="566" height="593" viewBox="0 0 566 593" fill="none" xmlns="http://www.w3.org/2000/svg">
<path d="M63.6667 0.843765C40.198 4.21356 19.0417 18.6146 9.84378 37.4688C0.32816 56.974 1.00003 37.4688 1.00003 295.333C1.00003 512.932 1.14587 527.906 3.36983 536.531C10.1771 562.932 24.474 578.896 49.1355 587.609L59.6667 591.333L267 592.135V209.068L130.333 278.266L130 331.865L129.667 385.469L168.333 365.198V498.667H97.6667V93.3333H168.333V214.667L267.135 165.198L266.667 113.599C266.271 70.1354 265.839 60.7396 263.912 54C256.458 27.9583 239.667 10.9531 213.531 2.99481C207.302 1.09376 197 0.76564 137 0.531265C98.8646 0.38543 65.8646 0.526057 63.6667 0.843765Z" fill="black"/>
<path d="M502.469 0.843765C525.938 4.21356 547.094 18.6146 556.292 37.4688C565.807 56.974 565.135 37.4688 565.135 295.333C565.135 512.932 564.99 527.906 562.766 536.531C555.958 562.932 541.662 578.896 517 587.609L506.469 591.333L299.135 592.135V209.068L435.802 278.266L436.135 331.865L436.469 385.469L397.802 365.198V498.667H468.469V93.3333H397.802V214.667L299 165.198L299.469 113.599C299.854 70.1354 300.297 60.7396 302.229 54C309.677 27.9583 326.469 10.9531 352.604 2.99481C358.833 1.09376 369.135 0.76564 429.135 0.531265C467.271 0.38543 500.271 0.526057 502.469 0.843765Z" fill="black"/>
</svg>
